<svg width="22" height="37" viewBox="0 0 22 37" fill="none" xmlns="http://www.w3.org/2000/svg">
<path fill-rule="evenodd" clip-rule="evenodd" d="M4.46013 11.2727C4.54579 11.3639 4.63096 11.4598 4.71213 11.5664C5.22538 12.242 5.34651 13.0727 5.81205 13.775C7.00237 15.5722 8.73143 16.6555 10.9143 16.6721C13.1431 16.6549 14.7977 15.6082 16.0118 13.775C16.4247 13.1519 16.5011 12.6349 16.8263 12.0187C16.9804 11.7283 17.1467 11.503 17.3705 11.2652C17.584 10.3067 17.6337 9.30861 17.5216 8.33312C17.3543 8.73472 17.1108 9.97279 16.7136 10.0949C16.3667 10.2687 16.2298 9.83017 16.1811 9.57867C16.0605 8.95178 15.8687 8.56494 15.6077 7.9897C15.4951 7.74019 15.4306 7.55313 15.3932 7.35432C15.3572 7.16326 15.3495 6.97394 15.347 6.71073L15.3445 6.35732C14.9858 6.66727 14.4266 6.9892 13.5517 7.00993C12.8454 7.02667 11.7667 7.03466 10.7073 7.03016C9.76772 7.02667 8.84612 7.01343 8.21621 6.9892C7.37652 6.95674 6.84955 6.69974 6.51689 6.41402C6.47468 6.71722 6.41199 7.10684 6.31758 7.60108C6.20394 8.1955 5.96567 8.86985 5.64425 9.38909C4.66448 10.9768 4.73187 9.02544 4.36973 8.33489C4.3485 8.34862 4.32602 8.36386 4.30229 8.38109C4.26733 8.69853 4.24959 9.02174 4.24959 9.35013C4.24959 10.0145 4.32252 10.6586 4.46014 11.2727L4.46013 11.2727ZM14.8314 16.5443L15.3949 20.1605C15.8264 19.6123 16.0287 19.0843 16.0996 18.3957C19.4649 19.6063 21.7383 22.6763 21.7383 26.2798V36.1818H0.0910645V26.2798C0.0910645 22.6746 2.36084 19.6086 5.73028 18.3957C5.80171 19.0853 6.00251 19.6118 6.43461 20.1605L6.99806 16.5448C6.278 16.5108 5.32348 16.4601 4.62841 16.3815C4.21357 16.3348 1.77022 15.9341 1.51319 15.3412C1.29415 14.8352 2.12584 13.5207 2.38958 12.9923C2.88709 11.9957 3.10216 11.7122 2.85613 10.6158C2.70653 9.94898 2.61736 9.38856 2.67905 8.70149C2.72076 8.23295 2.86012 7.41399 3.42405 7.30689C4.0322 -1.9327 17.7978 -1.93206 18.4059 7.30839C18.9668 7.41953 19.1042 8.23695 19.1456 8.70152C19.2071 9.38859 19.1181 9.94907 18.9685 10.6159C18.8936 10.9495 18.8072 11.2857 18.8696 11.6286C18.9808 12.234 19.5802 13.2833 19.8899 13.8817C20.536 15.1352 20.7093 15.5208 19.1866 15.9539C17.6626 16.3885 16.405 16.4711 14.8319 16.5445L14.8314 16.5443ZM13.5632 17.5565C12.7202 17.9055 11.8248 18.0815 10.912 18.0815C9.98963 18.0745 9.11675 17.9082 8.26632 17.5565L7.69238 21.2387C8.57779 21.7609 9.69694 22.0729 10.9142 22.0729C12.1318 22.0729 13.2515 21.7614 14.1361 21.2387L13.5627 17.5565H13.5632Z" fill="white"/>
</svg>
