<svg width="19" height="30" viewBox="0 0 19 30" fill="none" xmlns="http://www.w3.org/2000/svg">
<path d="M18.7005 14.132C18.547 13.659 18.1095 13.1819 17.3288 13.0226C17.3511 12.9604 17.372 12.8996 17.3913 12.8417C17.4161 12.7683 17.4397 12.6971 17.4644 12.6322C17.7438 11.8972 17.9505 11.0856 18.0788 10.2196C18.2059 9.37049 18.1198 8.55616 18.0206 7.79483C17.9829 7.50274 17.9196 7.12451 17.8155 6.75284C17.8356 6.7455 17.8557 6.73681 17.8753 6.72621C18.0073 6.65366 18.0856 6.51129 18.0761 6.36102C18.0125 5.33962 17.0033 4.04331 16.2988 3.50041C15.6442 2.9961 14.9301 2.72357 14.3177 2.52387C14.2248 2.49343 14.1305 2.46844 14.0397 2.44426C13.9286 2.41545 13.7604 2.37116 13.7381 2.36736C13.7381 2.36709 13.7322 2.32769 13.7648 2.22634C13.8191 2.05543 13.9148 1.88887 14.0161 1.71253C14.2014 1.39 14.4115 1.02401 14.4115 0.546301C14.4115 0.429463 14.359 0.318878 14.2688 0.244971C14.1783 0.171065 14.0596 0.141446 13.9452 0.164269C13.3515 0.284098 12.8565 0.753893 12.5051 1.26741C12.4415 0.9745 12.3989 0.693001 12.4214 0.421289C12.435 0.252824 12.3386 0.0944174 12.182 0.0297483C12.0264 -0.0351913 11.8457 0.00855404 11.7359 0.137892C11.3927 0.542746 11.3134 0.974479 11.302 1.38481C8.75137 0.120224 4.42131 1.8777 2.47282 3.24767C1.16428 4.16794 -0.148164 6.16804 0.0135612 7.79454C0.0268755 7.92686 0.105671 8.04153 0.220882 8.10158C0.213546 8.22331 0.21246 8.34314 0.2111 8.45889L0.208927 8.61077C0.205394 8.78494 0.318155 8.94064 0.484992 8.99145C0.509447 8.99879 0.533629 9.00368 0.558085 9.00639C0.562976 9.23192 0.577377 9.50119 0.601832 9.82399C0.685247 10.9405 1.08983 12.0197 1.54304 13.0207C0.754235 13.1772 0.312953 13.6563 0.158671 14.1318C-0.0440312 14.7578 0.143182 15.6816 1.27544 16.3949C1.80963 16.7345 2.35987 16.6723 2.68756 16.6343C2.72587 16.6302 2.77206 16.6248 2.81119 16.6212C3.71163 17.8861 4.442 18.3695 5.17161 18.7895C6.30438 19.4419 7.54914 19.6425 8.13197 19.7028C8.13333 19.756 8.13415 19.8231 8.13388 19.9025C7.54072 19.9661 6.95276 20.0745 6.37751 20.2266C6.36528 20.2185 6.35441 20.209 6.34164 20.2025C6.31664 20.1897 6.28947 20.1842 6.2623 20.1772C6.24165 20.1718 6.22209 20.1636 6.2009 20.1617C6.17481 20.1593 6.149 20.1644 6.12237 20.1674C6.09737 20.1701 6.07319 20.1709 6.04901 20.1785C6.04384 20.1802 6.03841 20.1791 6.03325 20.181C4.12197 20.8695 3.38214 21.758 2.46806 23.0397C1.84393 23.9416 1.63523 25.5295 1.57061 26.7027C1.51437 27.7282 1.57849 28.9006 1.66218 29.5585C1.70973 29.9182 1.96487 30 2.69527 30C2.93601 30 3.22865 29.9908 3.58243 29.9802C4.03294 29.9666 4.5598 29.9614 5.10021 29.9514L6.02917 29.9541C7.21007 29.9579 8.82593 29.9633 9.49433 29.9514L10.8331 29.959C11.1784 29.959 11.4325 29.9579 11.7623 29.9568C12.1691 29.9549 12.6905 29.9527 13.6415 29.9514C14.0132 29.9522 14.3765 29.9541 14.7178 29.9573C16.6475 29.9753 17.1067 29.9802 17.1695 29.4848C17.2415 28.9145 17.242 27.9785 17.1716 26.7025C17.1078 25.5308 16.8997 23.9446 16.2712 23.0346C15.3591 21.7573 14.6183 20.8685 12.7096 20.1808C12.7044 20.1789 12.699 20.18 12.6938 20.1784C12.6677 20.1702 12.6414 20.1689 12.6145 20.1664C12.59 20.164 12.5664 20.1591 12.5425 20.1615C12.5186 20.1637 12.4971 20.1724 12.474 20.1789C12.449 20.186 12.424 20.1909 12.4012 20.2028C12.3911 20.208 12.3822 20.2145 12.3724 20.2205C11.8325 20.0786 11.2814 19.9754 10.7266 19.9121C10.7261 19.8298 10.7263 19.7597 10.7274 19.7053C11.3535 19.6474 12.7414 19.4493 13.8969 18.7845C14.5806 18.3908 15.1325 17.924 16.05 16.6216C16.0891 16.6251 16.1348 16.6303 16.1734 16.6347C16.5013 16.6724 17.0513 16.7344 17.5835 16.3966C18.716 15.682 18.9036 14.7584 18.7008 14.1321L18.7005 14.132ZM7.55085 29.1791C7.03269 29.1782 6.49738 29.1766 6.03036 29.175L5.68419 29.1739V27.3396C5.68419 27.1244 5.51003 26.9499 5.29455 26.9499C5.07935 26.9499 4.90491 27.1241 4.90491 27.3396V29.1731C4.41854 29.175 3.96071 29.1891 3.5572 29.2016C3.13142 29.2152 2.66135 29.2293 2.40565 29.2157C2.3399 28.5549 2.30131 27.5705 2.34642 26.7458C2.43037 25.2291 2.70046 24.0705 3.10371 23.4877C3.90663 22.3616 4.49628 21.6204 6.03444 21.0132L7.55062 22.935L7.55085 29.1791ZM12.7061 21.0135C14.2413 21.6203 14.8312 22.3612 15.6322 23.4826C16.0395 24.0722 16.3093 25.2308 16.3927 26.7453C16.4501 27.7944 16.4585 28.6204 16.4177 29.1582C16.077 29.1913 15.3382 29.1848 14.7238 29.1783C14.4505 29.1756 14.1595 29.174 13.8652 29.1729V27.3394C13.8652 27.1242 13.691 26.9497 13.4755 26.9497C13.2603 26.9497 13.0859 27.1239 13.0859 27.3394V29.1729C12.4713 29.1742 12.0767 29.1759 11.7572 29.1772L11.2192 29.1786L11.2194 22.9164L12.7061 21.0135ZM17.1647 15.7376C16.8639 15.9294 16.5425 15.8933 16.2596 15.8601C15.9998 15.8319 15.6754 15.7933 15.4846 16.0675C14.6051 17.3326 14.1106 17.7611 13.5063 18.1086C12.1662 18.88 10.3851 18.949 10.3672 18.9496C10.2223 18.9545 10.0916 19.0392 10.0289 19.1699C9.97779 19.2764 9.9297 19.4411 9.94981 20.1726C9.95035 20.187 9.95714 20.1992 9.95905 20.2133C9.95823 20.219 9.95497 20.2236 9.95443 20.2293C9.93622 20.444 10.0954 20.6323 10.3098 20.65C10.8163 20.6926 11.3214 20.772 11.8179 20.8847L9.38358 24.0005L6.92947 20.8893C7.4604 20.7679 8.00137 20.6847 8.54456 20.6431C8.75921 20.6268 8.91953 20.4394 8.90322 20.225C8.90268 20.2195 8.89942 20.2152 8.89888 20.2098C8.90051 20.1967 8.90703 20.1856 8.9073 20.1723C8.92659 19.4403 8.87877 19.2756 8.82769 19.1699C8.76492 19.0395 8.6345 18.9542 8.4894 18.9496C8.47391 18.9487 6.90311 18.8884 5.55867 18.1146C4.86224 17.7135 4.2175 17.2831 3.37243 16.0672C3.18249 15.793 2.85807 15.8316 2.59747 15.8598C2.31434 15.8933 1.99344 15.9291 1.69021 15.7365C1.06744 15.3444 0.756585 14.8086 0.898138 14.3719C1.01036 14.0258 1.37935 13.807 1.88692 13.7573C1.93175 13.8505 1.97686 13.9448 2.02115 14.0364L2.11733 14.2353C2.18227 14.3706 2.31922 14.4556 2.46812 14.4556C2.47736 14.4556 2.48633 14.4554 2.49556 14.4546C2.65452 14.4434 2.79065 14.3366 2.83956 14.1845C3.02323 13.6079 3.0879 13.0383 3.1504 12.4876C3.1648 12.3631 3.17893 12.2376 3.19442 12.111C3.26126 11.5689 3.40364 10.982 3.54086 10.4141L3.60824 10.1361C3.61802 10.0954 3.62754 10.0541 3.63759 10.0122C3.64982 10.0068 3.6615 10.0005 3.67291 9.99347C3.89055 9.86494 4.1063 9.753 4.3185 9.64241C4.8008 9.39134 5.29887 9.1324 5.76944 8.70823C5.83003 8.85659 5.98246 8.96663 6.14712 8.95087H6.14794C9.28978 8.81692 11.2996 7.71863 12.1333 6.73583C12.2102 6.64535 12.2797 6.55351 12.3414 6.46167L12.5504 7.03418C12.5563 7.05103 12.5648 7.0695 12.5732 7.08526C12.8234 7.55859 13.7117 9.128 14.6273 9.44596C14.7627 9.49188 14.9048 9.48481 15.0251 9.42123C15.0406 9.41335 15.0553 9.40493 15.0692 9.39569C15.0806 9.46715 15.0923 9.54133 15.1053 9.6185C15.1338 9.79321 15.1583 9.93722 15.1659 10.019C15.1694 10.0543 15.8403 13.7823 16.1628 13.9882C16.2644 14.0526 16.391 14.0673 16.5049 14.0265C16.6744 13.9659 16.8071 13.8678 16.9176 13.7526C17.4548 13.7912 17.8423 14.0137 17.9583 14.3721C18.1001 14.809 17.7893 15.3445 17.1646 15.7375L17.1647 15.7376Z" fill="#66921B"/>
</svg>
