<svg width="20" height="22" viewBox="0 0 20 22" fill="none" xmlns="http://www.w3.org/2000/svg">
<path d="M0 8.44824H6.06975V14.518H0V8.44824Z" fill="white"/>
<path d="M6.96509 8.44824H13.0356V14.518H6.96509V8.44824Z" fill="white"/>
<path d="M0 7.55325H19.9999V3.64282H0V7.55325Z" fill="white"/>
<path d="M0 15.4136H6.06975V21.4841H0V15.4136Z" fill="white"/>
<path d="M13.9302 8.44824H19.9999V14.518H13.9302V8.44824Z" fill="white"/>
<path d="M3.4827 2.74767V0.447529C3.4827 0.200423 3.28212 0 3.03518 0C2.78807 0 2.58765 0.200587 2.58765 0.447529V2.74767H3.4827Z" fill="white"/>
<path d="M17.4129 2.74767V0.447529C17.4129 0.200423 17.2128 0 16.9654 0C16.7178 0 16.5178 0.200587 16.5178 0.447529V2.74767H17.4129Z" fill="white"/>
<path d="M13.9302 15.4136H19.9999V21.4841H13.9302V15.4136Z" fill="white"/>
<path d="M6.96509 15.4136H13.0356V21.4841H6.96509V15.4136Z" fill="white"/>
</svg>
