<svg width="55" height="45" viewBox="0 0 55 45" fill="none" xmlns="http://www.w3.org/2000/svg">
<path d="M40.3885 26.0834C38.7185 34.4326 31.333 40.7431 22.5003 40.7431C12.4408 40.7431 4.25708 32.5594 4.25708 22.4999C4.25708 12.4404 12.4408 4.25665 22.5003 4.25665C26.7133 4.25665 30.595 5.69591 33.6863 8.10358C33.8466 6.57864 34.4981 5.20095 35.4831 4.12894C31.8139 1.53167 27.3371 0 22.5 0C10.074 0 0 10.0743 0 22.5C0 34.9271 10.0743 45 22.5 45C32.5696 45 41.0918 38.3857 43.964 29.2641C42.4298 28.6567 41.1657 27.5207 40.3886 26.0827L40.3885 26.0834Z" fill="white"/>
<path d="M37.2881 9.75021C37.7916 9.75021 38.2001 9.34215 38.2001 8.83822C38.2001 7.50886 39.2813 6.42718 40.6111 6.42718C41.9409 6.42718 43.0222 7.50885 43.0222 8.83822C43.0222 10.1676 41.9409 11.2493 40.6111 11.2493H30.1639C29.6604 11.2493 29.252 11.6573 29.252 12.1613C29.252 12.6652 29.6604 13.0732 30.1639 13.0732H40.6111C42.9467 13.0732 44.8466 11.1729 44.8466 8.83777C44.8466 6.50263 42.9467 4.60229 40.6111 4.60229C38.2756 4.60229 36.3757 6.50263 36.3757 8.83777C36.3757 9.34169 36.7846 9.75018 37.2881 9.75018L37.2881 9.75021Z" fill="white"/>
<path d="M50.2788 8.25173C47.9432 8.25173 46.0433 10.1521 46.0433 12.4872C46.0433 12.9911 46.4518 13.3992 46.9553 13.3992C47.4588 13.3992 47.8673 12.9911 47.8673 12.4872C47.8673 11.1578 48.9485 10.0762 50.2783 10.0762C51.6081 10.0762 52.6894 11.1578 52.6894 12.4872C52.6894 13.8166 51.6081 14.8978 50.2783 14.8978H30.163C29.6595 14.8978 29.251 15.3059 29.251 15.8098C29.251 16.3137 29.6595 16.7218 30.163 16.7218H50.2783C52.6139 16.7218 54.5138 14.8219 54.5138 12.4867C54.5138 10.152 52.6143 8.25171 50.2783 8.25171L50.2788 8.25173Z" fill="white"/>
<path d="M46.5209 18.5462H30.1649C29.6614 18.5462 29.2529 18.9542 29.2529 19.4582C29.2529 19.9621 29.6614 20.3701 30.1649 20.3701H46.5209C47.8507 20.3701 48.9319 21.4518 48.9319 22.7812C48.9319 24.1106 47.8507 25.1922 46.5209 25.1922C45.1911 25.1922 44.1098 24.1106 44.1098 22.7812C44.1098 22.2773 43.7013 21.8692 43.1978 21.8692C42.6943 21.8692 42.2858 22.2773 42.2858 22.7812C42.2858 25.1163 44.1857 27.0167 46.5213 27.0167C48.8569 27.0167 50.7568 25.1163 50.7568 22.7812C50.7564 20.4465 48.8573 18.5461 46.5217 18.5461L46.5209 18.5462Z" fill="white"/>
<path d="M22.5004 8.01066C20.1916 8.01066 18.3184 9.73454 18.3184 11.8635C18.3184 13.119 19.5558 16.6461 20.6998 19.3291C19.6198 19.9437 18.886 21.0932 18.8559 22.4184C15.9893 23.0648 12.3019 24.1571 11.2668 24.9066C9.54166 26.1576 9.2426 28.6853 10.5966 30.5555C11.9518 32.4249 14.4482 32.9284 16.1737 31.6788C17.1536 30.9691 19.1595 28.0872 20.6476 25.6397C21.1909 25.9608 21.823 26.1487 22.5003 26.1487C23.1667 26.1487 23.789 25.9676 24.3273 25.655C25.8149 28.0991 27.814 30.97 28.7918 31.6784C30.5169 32.9281 33.0132 32.4245 34.3689 30.5551C35.7238 28.6853 35.4238 26.1572 33.6987 24.9063C32.6683 24.1597 29.0064 23.0729 26.1452 22.4256C26.1176 21.0929 25.3783 19.9365 24.2898 19.3219C25.4347 16.6393 26.681 13.1173 26.681 11.8627C26.681 9.7345 24.8091 8.01062 22.5002 8.01062L22.5004 8.01066Z" fill="white"/>
</svg>
