<svg width="30" height="30" viewBox="0 0 30 30" fill="none" xmlns="http://www.w3.org/2000/svg">
<path fill-rule="evenodd" clip-rule="evenodd" d="M15 0C6.72321 0 0 6.72321 0 15C0 23.2768 6.72321 30 15 30C23.2768 30 30 23.2768 30 15C30 6.72321 23.2768 0 15 0V0ZM14.9253 7.54261C14.9467 7.54166 14.9681 7.54166 14.9893 7.54261C15.1738 7.53976 15.3517 7.61181 15.4823 7.74236C15.6126 7.87268 15.6846 8.05055 15.6818 8.23509V13.1675C16.4256 13.4474 16.9602 14.1651 16.9602 15C16.9602 16.0313 16.1438 16.8798 15.1277 16.9495C15.052 16.959 15.0171 16.9599 14.9997 16.9599C14.2309 16.9599 13.5637 16.5029 13.2419 15.852H5.68896L5.68919 15.8523C5.50799 15.8525 5.33416 15.7809 5.20599 15.653C5.07781 15.525 5.00576 15.3515 5.00576 15.1703C5.00576 14.9893 5.07781 14.8157 5.20599 14.6878C5.33416 14.5598 5.50799 14.488 5.68919 14.4885H13.104C13.2709 13.8752 13.727 13.3768 14.3184 13.1568V8.23481V8.23505C14.3108 7.88168 14.5743 7.58111 14.9255 7.54258L14.9253 7.54261Z" fill="#66921B"/>
</svg>
