<svg width="75" height="63" viewBox="0 0 75 63" fill="none" xmlns="http://www.w3.org/2000/svg">
<g opacity="0.7">
<path d="M55.4585 11.1328C62.1067 12.8396 65.961 19.8634 64.0238 26.7419C62.4036 32.495 57.1616 36.3791 51.5771 36.4205C51.6272 36.7018 51.7561 45.4512 63.452 54.0859C63.452 54.0859 30.2933 49.8646 39.7132 20.0984C41.6501 13.2209 48.8106 9.42629 55.4588 11.1331L55.4585 11.1328Z" fill="#66921B"/>
<path d="M23.8202 11.7195C30.4684 13.4263 34.3227 20.4501 32.3855 27.3285C30.7653 33.0817 25.5233 36.9658 19.9388 37.0072C19.9889 37.2885 20.1178 46.0379 31.8137 54.6726C31.8137 54.6726 -1.34499 50.4513 8.07489 20.6851C10.0126 13.8078 17.1723 10.013 23.8205 11.7198L23.8202 11.7195Z" fill="#66921B"/>
</g>
</svg>
