<svg width="31" height="31" viewBox="0 0 31 31" fill="none" xmlns="http://www.w3.org/2000/svg">
<path fill-rule="evenodd" clip-rule="evenodd" d="M3.6078 19.9595L8.01491 28.2656C8.24388 28.6971 8.10033 29.2501 7.69576 29.4944L6.08529 30.4668C5.68071 30.7111 5.16227 30.5579 4.93326 30.1264L0.526153 21.8197C0.297175 21.3882 0.440734 20.8354 0.845301 20.5909L2.45577 19.6187C2.86058 19.3745 3.37855 19.5281 3.6078 19.9594V19.9595ZM17.4589 0.0390625C21.3677 0.0390625 24.5369 3.41927 24.5369 7.58893C24.5369 11.7583 21.3679 15.1388 17.4589 15.1388C13.5498 15.1388 10.3809 11.7586 10.3809 7.58893C10.3811 3.41908 13.5498 0.0390625 17.4589 0.0390625V0.0390625ZM20.2849 5.01231C20.1091 4.41777 19.7173 3.90853 19.1908 3.55592C18.9041 3.36382 18.5771 3.21752 18.2241 3.13045V2.7351C18.2241 2.28407 17.8814 1.91856 17.4586 1.91856C17.0357 1.91856 16.6931 2.28404 16.6931 2.7351V3.12969C16.2185 3.24637 15.7916 3.46885 15.4471 3.76624C14.8802 4.25575 14.5293 4.94596 14.5293 5.72123C14.5293 6.4965 14.88 7.18695 15.4471 7.67621C15.9686 8.12648 16.6802 8.40489 17.4583 8.40489C17.8754 8.40489 18.2456 8.54435 18.5068 8.77012C18.723 8.9564 18.8566 9.19989 18.8566 9.45604C18.8566 9.71192 18.723 9.95541 18.5068 10.142C18.2453 10.3677 17.8754 10.5072 17.4583 10.5072C17.1336 10.5072 16.8377 10.4229 16.5984 10.2794C16.3765 10.1463 16.209 9.96832 16.1228 9.76812C15.9477 9.35961 15.4957 9.17966 15.1127 9.36645C14.7297 9.55324 14.561 10.0359 14.7361 10.4439C14.9601 10.9648 15.3531 11.4024 15.8514 11.7013C16.1064 11.8544 16.3902 11.9724 16.6932 12.0471V12.4422C16.6932 12.8932 17.0359 13.2587 17.4587 13.2587C17.8816 13.2587 18.2242 12.8932 18.2242 12.4422V12.0476C18.6988 11.9309 19.1257 11.7084 19.4702 11.411C20.0371 10.9215 20.388 10.2313 20.388 9.45603C20.388 8.68076 20.0373 7.99031 19.4702 7.50105C18.9487 7.05078 18.237 6.77237 17.459 6.77237C17.0419 6.77237 16.672 6.63291 16.4104 6.40714C16.1943 6.22085 16.0607 5.97737 16.0607 5.72122C16.0607 5.46533 16.1943 5.22185 16.4104 5.03531C16.6719 4.80954 17.0419 4.67008 17.459 4.67008C17.8126 4.67008 18.1308 4.76828 18.3778 4.93381C18.5999 5.08239 18.7608 5.28183 18.826 5.5033C18.9532 5.93307 19.3827 6.17146 19.7856 6.03583C20.1885 5.90016 20.412 5.44205 20.2849 5.01227L20.2849 5.01231ZM5.44126 20.1017L8.78388 26.4012L9.09258 26.2111L16.6486 28.3709C17.7354 28.6817 18.784 28.5349 19.7421 27.9057L29.8938 21.4591C31.3776 20.4847 30.722 16.2201 26.2596 18.9921L20.7852 22.163C19.9834 22.6612 19.142 22.7945 18.2261 22.6386C17.4625 22.5083 15.6358 21.9631 13.8102 21.4417C13.479 21.3473 13.2823 20.9841 13.3712 20.6304C13.4597 20.2771 13.8002 20.0673 14.1318 20.1622L19.2885 21.636C19.3395 21.5257 19.3812 21.4067 19.4135 21.2784C19.6446 20.3591 19.1152 19.4525 18.2665 19.1591C15.9795 18.7192 13.7372 17.699 12.3642 17.2244C11.1325 16.7982 9.99331 17.289 8.87263 17.982L5.44126 20.1017Z" fill="#66921B"/>
</svg>
