<svg width="21" height="45" viewBox="0 0 21 45" fill="none" xmlns="http://www.w3.org/2000/svg">
<path d="M20.6204 17.8106V42.184C20.6204 42.9296 20.3243 43.6451 19.7975 44.1731C19.2707 44.7011 18.5559 44.9985 17.81 45H2.81001C2.06409 44.9984 1.34955 44.7011 0.822494 44.1731C0.295701 43.645 0 42.9296 0 42.184V39.3739H2.81009V39.3736C3.32747 39.3736 3.74687 38.9541 3.74687 38.4368C3.74687 37.9194 3.32744 37.5 2.81009 37.5H0V33.7469H2.81009V33.7472C3.32747 33.7472 3.74687 33.3278 3.74687 32.8104C3.74687 32.2931 3.32744 31.8736 2.81009 31.8736H0V28.1268H2.81009C3.29984 28.0872 3.67719 27.6781 3.67719 27.1869C3.67719 26.6955 3.29983 26.2868 2.81009 26.2473H0V22.5001H2.81009C3.32747 22.5001 3.74687 22.0806 3.74687 21.5633C3.74687 21.0462 3.32744 20.6268 2.81009 20.6268H0V17.8167C0 16.9475 0.508268 15.8148 1.5553 14.3942H19.066C20.1067 15.8144 20.621 16.9409 20.621 17.8105L20.6204 17.8106Z" fill="white"/>
<path d="M13.8244 7.16323H6.7959C7.07342 6.53974 7.2508 5.87669 7.32238 5.19797C7.42912 4.40652 7.48845 3.60908 7.50006 2.81014C7.50006 1.80617 8.03565 0.878476 8.90523 0.376493C9.7745 -0.125498 10.8457 -0.125498 11.7153 0.376493C12.5849 0.878484 13.1205 1.80617 13.1205 2.81014C13.1321 3.60911 13.1933 4.40682 13.3041 5.19797C13.3745 5.87608 13.55 6.53916 13.8243 7.16323H13.8244Z" fill="white"/>
<path d="M18.4159 10.3105V13.7268H2.20312V10.3105C2.20312 9.65217 2.46432 9.02083 2.92927 8.55493C3.3939 8.08873 4.02462 7.82627 4.68292 7.82471H15.9418C16.5988 7.82785 17.228 8.09124 17.6916 8.55713C18.155 9.02271 18.4153 9.65312 18.4153 10.3105L18.4159 10.3105Z" fill="white"/>
</svg>
