<svg width="35" height="37" viewBox="0 0 35 37" fill="none" xmlns="http://www.w3.org/2000/svg">
<path d="M12.8721 7.33968C13.1358 7.33968 13.3888 7.23478 13.5754 7.04822C13.7619 6.86165 13.8666 6.60866 13.8666 6.34492C13.8666 4.92362 14.6248 3.61037 15.8558 2.89984C17.0866 2.18907 18.6031 2.18907 19.8339 2.89984C21.0649 3.61037 21.8231 4.92355 21.8231 6.34492C21.8231 6.70032 22.0127 7.02872 22.3204 7.20633C22.6281 7.3839 23.0072 7.3839 23.3149 7.20633C23.6226 7.02876 23.8122 6.70034 23.8122 6.34492C23.8122 4.21303 22.6748 2.24303 20.8286 1.17708C18.9822 0.111138 16.7075 0.111138 14.8611 1.17708C13.0149 2.24303 11.8776 4.21303 11.8776 6.34492C11.8776 6.60866 11.9822 6.86165 12.1688 7.04822C12.3553 7.23478 12.6083 7.33968 12.8721 7.33968V7.33968Z" fill="white"/>
<path d="M27.7903 8.8313H7.89909C6.05268 8.8313 4.28171 9.56484 2.97626 10.8703C1.67055 12.176 0.937012 13.9467 0.937012 15.7931V29.2197C0.937012 31.0664 1.67055 32.8371 2.97626 34.1426C4.28171 35.4483 6.05268 36.1818 7.89909 36.1818H27.7903C29.6367 36.1818 31.4077 35.4483 32.7131 34.1426C34.0188 32.8371 34.7524 31.0664 34.7524 29.2197V15.7931C34.7524 13.9467 34.0188 12.176 32.7131 10.8703C31.4077 9.56484 29.6367 8.8313 27.7903 8.8313V8.8313ZM17.845 29.4686C15.9986 29.4686 14.2279 28.7351 12.9222 27.4294C11.6165 26.1239 10.8829 24.3532 10.8829 22.5066C10.8829 20.6601 11.6165 18.8894 12.9222 17.5837C14.2279 16.2783 15.9986 15.5447 17.845 15.5447C19.6914 15.5447 21.4621 16.2783 22.7678 17.5837C24.0736 18.8894 24.8071 20.6601 24.8071 22.5066C24.8071 24.3532 24.0736 26.1239 22.7678 27.4294C21.4621 28.7351 19.6914 29.4686 17.845 29.4686Z" fill="white"/>
<path d="M21.823 21.7611H18.8392V18.7774C18.8392 18.422 18.6497 18.0938 18.342 17.916C18.0343 17.7384 17.6552 17.7384 17.3474 17.916C17.0398 18.0938 16.8502 18.422 16.8502 18.7774V21.7611H13.8664C13.511 21.7611 13.1829 21.9507 13.005 22.2584C12.8274 22.5661 12.8274 22.9452 13.005 23.2529C13.1828 23.5606 13.511 23.7502 13.8664 23.7502H16.8502V26.7339C16.8502 27.0893 17.0398 27.4175 17.3474 27.5954C17.6551 27.7729 18.0342 27.7729 18.342 27.5954C18.6497 27.4175 18.8392 27.0894 18.8392 26.7339V23.7502H21.823C22.1784 23.7502 22.5065 23.5606 22.6844 23.2529C22.862 22.9452 22.862 22.5661 22.6844 22.2584C22.5066 21.9507 22.1784 21.7611 21.823 21.7611Z" fill="white"/>
</svg>
