<svg width="45" height="45" viewBox="0 0 45 45" fill="none" xmlns="http://www.w3.org/2000/svg">
<path d="M43.3928 9.55668C42.9666 9.55668 42.5577 9.72643 42.2563 10.0285C41.955 10.3306 41.7857 10.7405 41.7857 11.1677V12.5533C40.2962 15.2518 37.8909 17.3254 35.0066 18.3977C32.1221 19.47 28.9494 19.47 26.0648 18.3977C23.1806 17.3254 20.7752 15.2518 19.2858 12.5533V11.1677C19.2861 10.9912 19.2535 10.8164 19.1893 10.6521C19.1247 10.5093 19.0436 10.3741 18.9482 10.2493L10.9125 0.582928C10.6072 0.213608 10.1538 0 9.67518 0C9.19662 0 8.74285 0.213608 8.43749 0.582928L0.401785 10.2493C0.306358 10.3741 0.225643 10.5093 0.160714 10.6521C0.0742582 10.8121 0.0197265 10.9872 0 11.1677V43.389C0 43.9647 0.306358 44.4965 0.803571 44.7842C1.30078 45.0719 1.91351 45.0719 2.41071 44.7842C2.90792 44.4965 3.21428 43.9647 3.21428 43.389V41.7779H16.0714V43.389C16.0714 43.9647 16.3778 44.4965 16.875 44.7842C17.3722 45.0719 17.9849 45.0719 18.4821 44.7842C18.9793 44.4965 19.2857 43.9647 19.2857 43.389V27.2784H28.9285V32.4013C27.4872 32.9124 26.3729 34.0782 25.9256 35.5436C25.4779 37.0091 25.7502 38.6003 26.6596 39.8324C27.5686 41.0648 29.0068 41.7915 30.5357 41.7915C32.0646 41.7915 33.5029 41.0648 34.4119 39.8324C35.3213 38.6003 35.5935 37.0091 35.1458 35.5436C34.6985 34.0782 33.5842 32.9124 32.1429 32.4013V27.2784H41.7857V43.389C41.7857 43.9647 42.0921 44.4965 42.5893 44.7842C43.0865 45.0719 43.6992 45.0719 44.1964 44.7842C44.6936 44.4965 45 43.9647 45 43.389V11.1677C45 10.7405 44.8307 10.3306 44.5293 10.0285C44.228 9.72643 43.819 9.55668 43.3929 9.55668H43.3928ZM30.5357 38.5558C30.1095 38.5558 29.7005 38.386 29.3992 38.084C29.0979 37.7819 28.9285 37.3719 28.9285 36.9447C28.9285 36.5175 29.0979 36.1075 29.3992 35.8055C29.7005 35.5034 30.1095 35.3337 30.5357 35.3337C30.9618 35.3337 31.3708 35.5034 31.6721 35.8055C31.9735 36.1075 32.1428 36.5175 32.1428 36.9447C32.1428 37.3719 31.9735 37.7819 31.6721 38.084C31.3708 38.386 30.9618 38.5558 30.5357 38.5558ZM16.0714 24.0562H14.4643V22.4452C14.4643 20.7183 13.5452 19.1227 12.0535 18.2596C10.5619 17.3962 8.72373 17.3962 7.23212 18.2596C5.74051 19.1227 4.82141 20.7183 4.82141 22.4452V24.0562H3.21426V12.7788H16.0714V24.0562ZM11.25 24.0562H8.03569V22.4452C8.03569 21.8694 8.34205 21.3376 8.83926 21.0499C9.33647 20.7622 9.9492 20.7622 10.4464 21.0499C10.9436 21.3376 11.25 21.8694 11.25 22.4452V24.0562ZM3.21426 32.1115H16.0714V33.7226H3.21426V32.1115ZM16.0714 28.8894H3.21426V27.2784H16.0714V28.8894ZM9.64283 4.01464L14.2555 9.55659H5.03052L9.64283 4.01464ZM3.21426 36.9447H16.0714V38.5558H3.21426V36.9447ZM19.2857 24.0562V17.7893C22.2897 20.7409 26.3287 22.3944 30.5357 22.3944C34.7426 22.3944 38.7816 20.7409 41.7857 17.7893V24.0562H19.2857Z" fill="white"/>
</svg>
