<svg width="30" height="37" viewBox="0 0 30 37" fill="none" xmlns="http://www.w3.org/2000/svg">
<path d="M26.8309 30.7283H2.68252C-0.952866 30.7283 -0.834996 36.1819 2.68252 36.1819H26.8309C30.4175 36.1819 30.4172 30.7283 26.8309 30.7283Z" fill="white"/>
<path d="M5.27696 24.7509C1.67293 24.7509 1.67075 30.2045 5.27696 30.2045H24.2365C27.8402 30.2045 27.8402 24.7509 24.2365 24.7509H5.27696Z" fill="white"/>
<path d="M7.16401 24.2285H22.3504C25.8986 24.1673 25.873 18.7753 22.2902 18.7753H7.22416C3.639 18.7753 3.61694 24.1673 7.16398 24.2285H7.16401Z" fill="white"/>
<path d="M11.1204 12.2747H18.3933C21.9108 12.1853 21.8745 6.82147 18.3025 6.82147H11.2101C7.63807 6.82147 7.60033 12.1839 11.1204 12.2747H11.1204Z" fill="white"/>
<path d="M9.4485 18.252H20.065C23.6715 18.252 23.6702 12.7977 20.065 12.7977H9.4485C5.84374 12.7977 5.84228 18.252 9.4485 18.252Z" fill="white"/>
<path d="M13.3229 6.29815H16.1912V2.39858C16.1912 -0.296028 13.3229 -0.296028 13.3229 2.39858V6.29815Z" fill="white"/>
</svg>
