<svg width="45" height="33" viewBox="0 0 45 33" fill="none" xmlns="http://www.w3.org/2000/svg">
<path fill-rule="evenodd" clip-rule="evenodd" d="M43.8158 0H1.18421C0.52107 0 0 0.52107 0 1.18421V6.67903C0 7.34217 0.52107 7.86324 1.18421 7.86324H43.8158C44.4789 7.86324 45 7.34217 45 6.67903V1.18421C45 0.52107 44.4789 0 43.8158 0Z" fill="white"/>
<path fill-rule="evenodd" clip-rule="evenodd" d="M3.93164 13.8316C3.93164 24.0632 12.3159 32.4 22.5001 32.4C32.7316 32.4 41.0685 24.0633 41.0685 13.8316V10.8H3.93164V13.8316ZM22.5001 15.6317C25.6265 15.6317 28.137 18.1422 28.137 21.2686C28.137 24.395 25.5793 26.9056 22.5001 26.9056C19.3737 26.9056 16.8631 24.395 16.8631 21.2686C16.8631 18.1422 19.3737 15.6317 22.5001 15.6317Z" fill="white"/>
<path fill-rule="evenodd" clip-rule="evenodd" d="M22.4999 24.9158C24.5366 24.9158 26.1474 23.2577 26.1474 21.2683C26.1474 20.8421 26.0525 20.4631 25.958 20.0841C25.6739 20.3683 25.2476 20.6052 24.7738 20.6052C23.8737 20.6052 23.1634 19.8948 23.1634 18.9948C23.1634 18.5209 23.3527 18.1423 23.6844 17.8105C23.3055 17.6685 22.9265 17.6212 22.5002 17.6212C20.4636 17.6212 18.8528 19.2793 18.8528 21.2687C18.8525 23.2581 20.4632 24.9158 22.4999 24.9158L22.4999 24.9158Z" fill="white"/>
</svg>
